<?xml version="1.0" encoding="UTF-8" standalone="no"?>
<!DOCTYPE svg PUBLIC "-//W3C//DTD SVG 1.1//EN"
 "http://www.w3.org/Graphics/SVG/1.1/DTD/svg11.dtd">
<!-- Generated by graphviz version 2.40.1 (20161225.0304)
 -->
<!-- Title: state transitions Pages: 1 -->
<svg width="461pt" height="598pt"
 viewBox="0.00 0.00 461.00 598.00" xmlns="http://www.w3.org/2000/svg" xmlns:xlink="http://www.w3.org/1999/xlink">
<g id="graph0" class="graph" transform="scale(1 1) rotate(0) translate(4 594)">
<title>state transitions</title>
<polygon fill="#ffffff" stroke="transparent" points="-4,4 -4,-594 457,-594 457,4 -4,4"/>
<g id="clust1" class="cluster state regular">
<title>cluster_PIG_CURRENT_STATE</title>
<path fill="none" stroke="#000000" stroke-width="2" d="M20,-8C20,-8 433,-8 433,-8 439,-8 445,-14 445,-20 445,-20 445,-570 445,-570 445,-576 439,-582 433,-582 433,-582 20,-582 20,-582 14,-582 8,-576 8,-570 8,-570 8,-20 8,-20 8,-14 14,-8 20,-8"/>
<text text-anchor="start" x="161.3342" y="-563.2" font-family="Helvetica,sans-Serif" font-size="12.00" fill="#000000">PIG_CURRENT_STATE</text>
</g>
<!-- PIG_CURRENT_STATE -->
<!-- INITIAL -->
<g id="node2" class="node state regular">
<title>INITIAL</title>
<polygon fill="#ffffff" fill-opacity="0.003922" stroke="transparent" stroke-width="2" points="355,-544 293,-544 293,-508 355,-508 355,-544"/>
<text text-anchor="start" x="303.6642" y="-522.2" font-family="Helvetica,sans-Serif" font-size="12.00" fill="#000000">INITIAL</text>
<path fill="none" stroke="#000000" stroke-width="2" d="M305.3333,-509C305.3333,-509 342.6667,-509 342.6667,-509 348.3333,-509 354,-514.6667 354,-520.3333 354,-520.3333 354,-531.6667 354,-531.6667 354,-537.3333 348.3333,-543 342.6667,-543 342.6667,-543 305.3333,-543 305.3333,-543 299.6667,-543 294,-537.3333 294,-531.6667 294,-531.6667 294,-520.3333 294,-520.3333 294,-514.6667 299.6667,-509 305.3333,-509"/>
</g>
<!-- BEGINNING -->
<g id="node3" class="node state regular">
<title>BEGINNING</title>
<polygon fill="#ffffff" fill-opacity="0.003922" stroke="transparent" stroke-width="2" points="264.5,-462 175.5,-462 175.5,-426 264.5,-426 264.5,-462"/>
<text text-anchor="start" x="186.8334" y="-440.2" font-family="Helvetica,sans-Serif" font-size="12.00" fill="#000000">BEGINNING</text>
<path fill="none" stroke="#000000" stroke-width="2" d="M187.8333,-427C187.8333,-427 252.1667,-427 252.1667,-427 257.8333,-427 263.5,-432.6667 263.5,-438.3333 263.5,-438.3333 263.5,-449.6667 263.5,-449.6667 263.5,-455.3333 257.8333,-461 252.1667,-461 252.1667,-461 187.8333,-461 187.8333,-461 182.1667,-461 176.5,-455.3333 176.5,-449.6667 176.5,-449.6667 176.5,-438.3333 176.5,-438.3333 176.5,-432.6667 182.1667,-427 187.8333,-427"/>
</g>
<!-- INITIAL&#45;&gt;BEGINNING -->
<g id="edge1" class="edge transition">
<title>INITIAL&#45;&gt;BEGINNING</title>
<path fill="none" stroke="#000000" d="M300.919,-507.8015C286.2427,-496.2298 267.06,-481.105 251.0554,-468.486"/>
<polygon fill="#000000" stroke="#000000" points="253.0362,-465.5907 243.0165,-462.1476 248.7021,-471.0876 253.0362,-465.5907"/>
<text text-anchor="middle" x="279.3895" y="-482" font-family="Helvetica,sans-Serif" font-size="10.00" fill="#000000"> </text>
</g>
<!-- ROLLING -->
<g id="node4" class="node state regular">
<title>ROLLING</title>
<polygon fill="#ffffff" fill-opacity="0.003922" stroke="transparent" stroke-width="2" points="120,-380 46,-380 46,-344 120,-344 120,-380"/>
<text text-anchor="start" x="56.6642" y="-358.2" font-family="Helvetica,sans-Serif" font-size="12.00" fill="#000000">ROLLING</text>
<path fill="none" stroke="#000000" stroke-width="2" d="M58.3333,-345C58.3333,-345 107.6667,-345 107.6667,-345 113.3333,-345 119,-350.6667 119,-356.3333 119,-356.3333 119,-367.6667 119,-367.6667 119,-373.3333 113.3333,-379 107.6667,-379 107.6667,-379 58.3333,-379 58.3333,-379 52.6667,-379 47,-373.3333 47,-367.6667 47,-367.6667 47,-356.3333 47,-356.3333 47,-350.6667 52.6667,-345 58.3333,-345"/>
</g>
<!-- BEGINNING&#45;&gt;ROLLING -->
<g id="edge2" class="edge transition">
<title>BEGINNING&#45;&gt;ROLLING</title>
<path fill="none" stroke="#000000" d="M175.2371,-433.4653C157.6813,-427.9812 137.9953,-420.0533 122.173,-409 114.1155,-403.3711 106.765,-395.6709 100.663,-388.1323"/>
<polygon fill="#000000" stroke="#000000" points="103.4027,-385.9529 94.5574,-380.121 97.8353,-390.1961 103.4027,-385.9529"/>
<text text-anchor="start" x="122" y="-400" font-family="Helvetica,sans-Serif" font-size="10.00" fill="#000000">ROLL = &#39;1&#39; &#160;&#160;</text>
</g>
<!-- ONE -->
<g id="node5" class="node state regular">
<title>ONE</title>
<polygon fill="#ffffff" fill-opacity="0.003922" stroke="transparent" stroke-width="2" points="197,-298 141,-298 141,-262 197,-262 197,-298"/>
<text text-anchor="start" x="155.9998" y="-276.2" font-family="Helvetica,sans-Serif" font-size="12.00" fill="#000000">ONE</text>
<path fill="none" stroke="#000000" stroke-width="2" d="M153.3333,-263C153.3333,-263 184.6667,-263 184.6667,-263 190.3333,-263 196,-268.6667 196,-274.3333 196,-274.3333 196,-285.6667 196,-285.6667 196,-291.3333 190.3333,-297 184.6667,-297 184.6667,-297 153.3333,-297 153.3333,-297 147.6667,-297 142,-291.3333 142,-285.6667 142,-285.6667 142,-274.3333 142,-274.3333 142,-268.6667 147.6667,-263 153.3333,-263"/>
</g>
<!-- ROLLING&#45;&gt;ONE -->
<g id="edge3" class="edge transition">
<title>ROLLING&#45;&gt;ONE</title>
<path fill="none" stroke="#000000" d="M86.141,-343.8258C88.5535,-334.3367 92.7265,-323.0578 99.839,-315 104.6869,-309.5078 117.9207,-302.3566 131.5306,-295.9509"/>
<polygon fill="#000000" stroke="#000000" points="133.2725,-299.0032 140.9144,-291.6649 130.3642,-292.6359 133.2725,-299.0032"/>
<text text-anchor="start" x="99" y="-318" font-family="Helvetica,sans-Serif" font-size="10.00" fill="#000000">not (ROLL = &#39;1&#39;) &#160;&#160;</text>
</g>
<!-- ONE&#45;&gt;BEGINNING -->
<g id="edge4" class="edge transition">
<title>ONE&#45;&gt;BEGINNING</title>
<path fill="none" stroke="#000000" d="M174.7224,-298.1615C176.425,-303.5776 178.2917,-309.528 180,-315 190.8566,-349.7768 203.2695,-389.8587 211.3503,-415.9953"/>
<polygon fill="#000000" stroke="#000000" points="208.0286,-417.101 214.3255,-425.6215 214.7164,-415.0339 208.0286,-417.101"/>
<text text-anchor="start" x="199" y="-359" font-family="Helvetica,sans-Serif" font-size="10.00" fill="#000000">DIE1 =&#39;1&#39; &#160;&#160;</text>
</g>
<!-- ROLLHOLD -->
<g id="node6" class="node state regular">
<title>ROLLHOLD</title>
<polygon fill="#ffffff" fill-opacity="0.003922" stroke="transparent" stroke-width="2" points="120,-216 34,-216 34,-180 120,-180 120,-216"/>
<text text-anchor="start" x="44.6648" y="-194.2" font-family="Helvetica,sans-Serif" font-size="12.00" fill="#000000">ROLLHOLD</text>
<path fill="none" stroke="#000000" stroke-width="2" d="M46.3333,-181C46.3333,-181 107.6667,-181 107.6667,-181 113.3333,-181 119,-186.6667 119,-192.3333 119,-192.3333 119,-203.6667 119,-203.6667 119,-209.3333 113.3333,-215 107.6667,-215 107.6667,-215 46.3333,-215 46.3333,-215 40.6667,-215 35,-209.3333 35,-203.6667 35,-203.6667 35,-192.3333 35,-192.3333 35,-186.6667 40.6667,-181 46.3333,-181"/>
</g>
<!-- ONE&#45;&gt;ROLLHOLD -->
<g id="edge5" class="edge transition">
<title>ONE&#45;&gt;ROLLHOLD</title>
<path fill="none" stroke="#000000" d="M148.5822,-261.8015C135.7184,-250.336 118.941,-235.3822 104.8625,-222.8339"/>
<polygon fill="#000000" stroke="#000000" points="107.1547,-220.1885 97.3607,-216.1476 102.4971,-225.4141 107.1547,-220.1885"/>
<text text-anchor="start" x="129" y="-236" font-family="Helvetica,sans-Serif" font-size="10.00" fill="#000000">not (DIE1 =&#39;1&#39;) &#160;&#160;</text>
</g>
<!-- ROLLHOLD&#45;&gt;ROLLING -->
<g id="edge7" class="edge transition">
<title>ROLLHOLD&#45;&gt;ROLLING</title>
<path fill="none" stroke="#000000" d="M49.0715,-216.2078C42.8203,-222.4661 38,-230.1584 38,-239 38,-321 38,-321 38,-321 38,-326.6808 39.9838,-331.7835 43.1183,-336.3005"/>
<polygon fill="#000000" stroke="#000000" points="40.5477,-338.6766 49.8232,-343.7968 45.7652,-334.0099 40.5477,-338.6766"/>
<text text-anchor="start" x="38" y="-283" font-family="Helvetica,sans-Serif" font-size="10.00" fill="#000000">ROLL = &#39;1&#39; &#160;&#160;</text>
<text text-anchor="start" x="38" y="-271" font-family="Helvetica,sans-Serif" font-size="10.00" fill="#000000">not (HOLD = &#39;1&#39;) &#160;&#160;</text>
</g>
<!-- ROLLHOLD&#45;&gt;ROLLHOLD -->
<g id="edge8" class="edge transition">
<title>ROLLHOLD&#45;&gt;ROLLHOLD</title>
<path fill="none" stroke="#000000" d="M120.1303,-202.856C132.4785,-202.6655 142,-201.0469 142,-198 142,-195.8577 137.2927,-194.4214 130.2054,-193.6913"/>
<polygon fill="#000000" stroke="#000000" points="130.3055,-190.1916 120.1303,-193.144 129.9258,-197.1813 130.3055,-190.1916"/>
<text text-anchor="start" x="142" y="-201" font-family="Helvetica,sans-Serif" font-size="10.00" fill="#000000">not (HOLD = &#39;1&#39;) &#160;&#160;</text>
<text text-anchor="start" x="142" y="-189" font-family="Helvetica,sans-Serif" font-size="10.00" fill="#000000">not (ROLL = &#39;1&#39;) &#160;&#160;</text>
</g>
<!-- TEST -->
<g id="node7" class="node state regular">
<title>TEST</title>
<polygon fill="#ffffff" fill-opacity="0.003922" stroke="transparent" stroke-width="2" points="269,-134 213,-134 213,-98 269,-98 269,-134"/>
<text text-anchor="start" x="225.6664" y="-112.2" font-family="Helvetica,sans-Serif" font-size="12.00" fill="#000000">TEST</text>
<path fill="none" stroke="#000000" stroke-width="2" d="M225.3333,-99C225.3333,-99 256.6667,-99 256.6667,-99 262.3333,-99 268,-104.6667 268,-110.3333 268,-110.3333 268,-121.6667 268,-121.6667 268,-127.3333 262.3333,-133 256.6667,-133 256.6667,-133 225.3333,-133 225.3333,-133 219.6667,-133 214,-127.3333 214,-121.6667 214,-121.6667 214,-110.3333 214,-110.3333 214,-104.6667 219.6667,-99 225.3333,-99"/>
</g>
<!-- ROLLHOLD&#45;&gt;TEST -->
<g id="edge6" class="edge transition">
<title>ROLLHOLD&#45;&gt;TEST</title>
<path fill="none" stroke="#000000" d="M113.3969,-179.8015C140.2405,-166.3797 176.6444,-148.1778 203.6994,-134.6503"/>
<polygon fill="#000000" stroke="#000000" points="205.4692,-137.6786 212.8482,-130.0759 202.3386,-131.4176 205.4692,-137.6786"/>
<text text-anchor="start" x="169" y="-154" font-family="Helvetica,sans-Serif" font-size="10.00" fill="#000000">HOLD = &#39;1&#39; &#160;&#160;</text>
</g>
<!-- TEST&#45;&gt;BEGINNING -->
<g id="edge10" class="edge transition">
<title>TEST&#45;&gt;BEGINNING</title>
<path fill="none" stroke="#000000" d="M241,-134.3688C241,-141.4426 241,-149.5972 241,-157 241,-253.5 241,-253.5 241,-253.5 241,-274.9081 256.9666,-353.9949 251,-380 248.0959,-392.6575 242.3446,-405.7184 236.5762,-416.7143"/>
<polygon fill="#000000" stroke="#000000" points="233.3388,-415.337 231.5737,-425.7837 239.4682,-418.7179 233.3388,-415.337"/>
<text text-anchor="start" x="245" y="-277" font-family="Helvetica,sans-Serif" font-size="10.00" fill="#000000">not (WN = &#39;1&#39;) &#160;&#160;</text>
</g>
<!-- WIN -->
<g id="node8" class="node state regular">
<title>WIN</title>
<polygon fill="#ffffff" fill-opacity="0.003922" stroke="transparent" stroke-width="2" points="292,-52 236,-52 236,-16 292,-16 292,-52"/>
<text text-anchor="start" x="252.3378" y="-30.2" font-family="Helvetica,sans-Serif" font-size="12.00" fill="#000000">WIN</text>
<path fill="none" stroke="#000000" stroke-width="2" d="M248.3333,-17C248.3333,-17 279.6667,-17 279.6667,-17 285.3333,-17 291,-22.6667 291,-28.3333 291,-28.3333 291,-39.6667 291,-39.6667 291,-45.3333 285.3333,-51 279.6667,-51 279.6667,-51 248.3333,-51 248.3333,-51 242.6667,-51 237,-45.3333 237,-39.6667 237,-39.6667 237,-28.3333 237,-28.3333 237,-22.6667 242.6667,-17 248.3333,-17"/>
</g>
<!-- TEST&#45;&gt;WIN -->
<g id="edge9" class="edge transition">
<title>TEST&#45;&gt;WIN</title>
<path fill="none" stroke="#000000" d="M246.1044,-97.8015C249.0524,-87.2915 252.8225,-73.8503 256.1414,-62.0177"/>
<polygon fill="#000000" stroke="#000000" points="259.579,-62.7213 258.9098,-52.1476 252.8391,-60.8308 259.579,-62.7213"/>
<text text-anchor="start" x="254" y="-72" font-family="Helvetica,sans-Serif" font-size="10.00" fill="#000000">WN = &#39;1&#39; &#160;&#160;</text>
</g>
<!-- WIN&#45;&gt;INITIAL -->
<g id="edge11" class="edge transition">
<title>WIN&#45;&gt;INITIAL</title>
<path fill="none" stroke="#000000" d="M292.2941,-40.9851C319.0074,-48.4307 355,-61.0509 355,-75 355,-485 355,-485 355,-485 355,-489.9805 353.5265,-494.7382 351.222,-499.1334"/>
<polygon fill="#000000" stroke="#000000" points="348.204,-497.3494 345.5305,-507.6014 354.0137,-501.2542 348.204,-497.3494"/>
<text text-anchor="start" x="355" y="-277" font-family="Helvetica,sans-Serif" font-size="10.00" fill="#000000">NEWGAME = &#39;1&#39; &#160;&#160;</text>
</g>
<!-- WIN&#45;&gt;WIN -->
<g id="edge12" class="edge transition">
<title>WIN&#45;&gt;WIN</title>
<path fill="none" stroke="#000000" d="M292.0183,-38.8247C303.888,-39.1883 314,-37.5801 314,-34 314,-31.5387 309.2205,-30.0094 302.3762,-29.4121"/>
<polygon fill="#000000" stroke="#000000" points="302.0957,-25.9049 292.0183,-29.1753 301.9356,-32.903 302.0957,-25.9049"/>
<text text-anchor="start" x="314" y="-31" font-family="Helvetica,sans-Serif" font-size="10.00" fill="#000000">not (NEWGAME = &#39;1&#39;) &#160;&#160;</text>
</g>
</g>
</svg>
